<?xml version="1.0" encoding="utf-8"?>
<!-- Generator: Adobe Illustrator 22.0.1, SVG Export Plug-In . SVG Version: 6.00 Build 0)  -->
<svg version="1.1" id="Layer_1" xmlns="http://www.w3.org/2000/svg" xmlns:xlink="http://www.w3.org/1999/xlink" x="0px" y="0px"
	 viewBox="0 0 216 216" style="enable-background:new 0 0 216 216;" xml:space="preserve">
<style type="text/css">
	.st0{fill:none;stroke:#FFFFFF;stroke-miterlimit:10;}
</style>
<circle class="st0" cx="40" cy="42" r="12.5"/>
<path class="st0" d="M40.5,32.5c2-1,8.6,0.8,8,9c-0.1-0.3-0.2-0.8-0.6-1.4c-0.2-0.4-0.6-1.1-1.6-1.9c-0.9-0.9-2.1-2-3.9-2.6
	c-1.7-0.6-2.7-0.3-3-1C39.2,33.9,39.8,32.9,40.5,32.5z"/>
<path class="st0" d="M50.5,32.5"/>
<path class="st0" d="M53.5,31.5"/>
<circle class="st0" cx="59.7" cy="64.7" r="7.2"/>
<path class="st0" d="M60,59.2c1.2-0.6,5,0.5,4.6,5.2c0-0.2-0.1-0.5-0.3-0.8c-0.1-0.2-0.4-0.6-0.9-1.1c-0.5-0.5-1.2-1.2-2.2-1.5
	c-1-0.4-1.6-0.2-1.7-0.6C59.3,60,59.6,59.5,60,59.2z"/>
<path class="st0" d="M65.8,59.2"/>
<path class="st0" d="M67.6,58.7"/>
<circle class="st0" cx="38" cy="70" r="5.5"/>
<path class="st0" d="M38.3,65.8c0.9-0.4,3.8,0.4,3.5,4c0-0.1-0.1-0.4-0.3-0.6c-0.1-0.2-0.3-0.5-0.7-0.9c-0.4-0.4-0.9-0.9-1.7-1.2
	c-0.8-0.3-1.2-0.2-1.3-0.4C37.7,66.4,37.9,66,38.3,65.8z"/>
<path class="st0" d="M42.7,65.8"/>
<path class="st0" d="M44,65.4"/>
<circle class="st0" cx="52.6" cy="80.6" r="4.1"/>
<path class="st0" d="M52.8,77.5c0.7-0.3,2.8,0.3,2.6,2.9c0-0.1-0.1-0.3-0.2-0.5c-0.1-0.1-0.2-0.3-0.5-0.6c-0.3-0.3-0.7-0.7-1.3-0.9
	c-0.6-0.2-0.9-0.1-1-0.3C52.4,77.9,52.5,77.6,52.8,77.5z"/>
<path class="st0" d="M56,77.5"/>
<path class="st0" d="M57,77.2"/>
</svg>
