<?xml version="1.0" encoding="utf-8"?>
<!-- Generator: Adobe Illustrator 22.0.1, SVG Export Plug-In . SVG Version: 6.00 Build 0)  -->
<svg version="1.1" xmlns="http://www.w3.org/2000/svg" xmlns:xlink="http://www.w3.org/1999/xlink" x="0px" y="0px"
	 viewBox="0 0 288 288" style="enable-background:new 0 0 288 288;" xml:space="preserve">
<style type="text/css">
	.st0{display:none;}
	.st1{display:inline;}
	.st2{display:inline;fill:#E6E6E6;}
	.st3{display:inline;fill:#CCCCCC;}
	.st4{display:inline;fill:#FFFFFF;stroke:#000000;stroke-width:0.5;stroke-miterlimit:10;}
	.st5{display:inline;fill:#00FFFF;stroke:#000000;stroke-miterlimit:10;}
	.st6{display:inline;fill:#FFFFFF;}
	.st7{fill:#E6E6E6;}
	.st8{fill:#CCCCCC;}
	.st9{fill:#FFFFFF;stroke:#000000;stroke-width:0.5;stroke-miterlimit:10;}
	.st10{fill:#00FFFF;stroke:#000000;stroke-miterlimit:10;}
	.st11{fill:#FFFFFF;}
</style>
<g id="Layer_1" class="st0">
	<rect x="-0.5" y="-0.5" class="st1" width="290" height="290"/>
</g>
<g id="Strom_ref" class="st0">
	<path class="st2" d="M187,147.1c0,0,10.5-22.3,8-50.4c0,0,8,15.3,12.6,3.8c0,0,42.8,10.1,39.1,50.8c-3.8,40.7-33.9,60.9-52.1,60.9
		c-6.7,0-13.4-43.6-13.4-43.6c0.7,2.3-34.6-5.2-79.2-4.5c0,0-27,7-45.6,3.3C40.6,164.1,37.1,153,37.1,153S101.2,99.2,187,147.1z"/>
	<path class="st2" d="M132,84.5c1.3,1,3.3,2.3,5.9,2.5c3.2,0.3,4.1-1.3,9.8-3.6c8.8-3.5,15.4-3.6,17.9-3.5c0,0,0,0,0,0
		s-1.7,7.1,8.8,6.7c0,0-7.9,8,10.1,13c0,0-11.8,4.2,2.1,27.3c0,0-10.5,7.1-6.3,10.1c0,0-10-4.9-16.8-0.7c-4.6-1.9-9.7-3.9-15.4-5.4
		c-16.2-4.3-30.6-4.4-41.3-3.4c1.4-4.9,3.4-10.6,6.3-16.5C118.9,99,126.2,90.3,132,84.5z"/>
	<path class="st3" d="M102.2,146.3c0,0,18,9.4,12.8,20.7h-12l-17.2-11.7l16-9.3"/>
	<path class="st2" d="M102,163c2,8,2.7,18.9,4.8,23.2c3.6,7.3,7.9,15.9,16.3,21.4c6,3.9,12.3,5.2,12.6,5.3c2.4,0.5,4.3,0.6,4.8,0.6
		c14-0.3,49.2-0.5,53.9,5.9c0,0-12.3-25.7-13.4-50.8L139,165L102,163z"/>
	<path class="st3" d="M76,168c0,0,10.2-3,8.7-9.9c-0.7-3.2-3.6-6.9-10.7-10.8C74.1,147.3,89.8,157.3,76,168z"/>
	<circle class="st4" cx="56" cy="151.1" r="3.8"/>
	<path class="st1" d="M37.1,153c0,0,2.3,6.8,13.7,5.2C50.8,158.2,41.6,158.1,37.1,153z"/>
	<circle class="st5" cx="56.6" cy="150.3" r="1.6"/>
	<circle class="st6" cx="56.8" cy="149.3" r="0.6"/>
	<path class="st2" d="M85.8,163.8l12.9,15.4c0,0,25.2-11.2,3-31.9l-15.9,8V163.8z"/>
	<path class="st2" d="M86,166c0,0-8.7,17.1-4,30c3.2,8.7,23.8,22.3,38,30c0,0-29-17-19-26c0,0-6-7-2.2-14c0,0-7.3-15-8.8-20
		C89.6,164.7,86.2,168,86,166z"/>
	<path class="st6" d="M111,163c0,0-0.2,6.4-5,12c-2.4,2.8,6.3,9.8,11.2,12.4c0,0-8-10.5-1.4-16c0,0,2,28.3,31.6,35.6
		c0,0,22.5-5.4,37,3.1c0,0-16.7-36.7-8.4-42.2l-37-3L111,163z"/>
	<path class="st6" d="M186.6,148.7c0,0,12.8-19.5,8-54.8c0,0,10.4,29.5-3.5,59.1c0,0,16-10.3,19.5-44.5c0,0,3.1,37.8-19.1,50.1
		c0,0,24.5-7.4,37.9-27.6c0,0-4.8,23.4-39.6,32.3c0,0,33.3,3.3,39.6-1.9c0,0-6.1,9.6-42.8,6.2c0,0,2.3,6,15.7,10
		c0,0-13.7-1.8-19.7-7.9C182.7,169.8,180.3,158.8,186.6,148.7z"/>
	<path class="st6" d="M106.8,127.5c0,0,9.4-24.1,29-35.3c0,0-20.1,15-19.2,32.1c0,0,13.7-30.8,45.3-38.9c0,0-27.8,15.8-34.6,38.9
		c0,0,11.5-18.6,32.1-17.8c0,0-20.9,8.1-20.1,21.1c0,0,15.9-11.1,31.6-5.8c0,0-36.9,2.4-7.3,14.6
		C163.6,136.3,142.7,127.4,106.8,127.5z"/>
	<path class="st6" d="M76.3,139.2c0,0,34.3-12.9,74.8,6c0,0,28.2,7.9,6-3.4S103.1,124.2,76.3,139.2z"/>
	<path class="st6" d="M85.8,155.8c0,0,6.7,1.5,12.1-3.9c0,0-2.6,6.1-11.4,6c0,0,11.9,3.1,18.5,0c0,0-1.8,3.5-19.2,2.2
		c0,0,5.7,3.2,15.9,3.1c0,0-10.2,0.8-15.9-1c0,0,2.6,2.6,5.7,3.4c0,0-3.4-0.3-5.7-2.4C83.6,161.2,85.8,155.8,85.8,155.8z"/>
	<path class="st6" d="M85.8,169.2c0,0-3.3,14.7-1.8,20.8c1.2,5.1,8,13,13,16c0,0-10-12-7-19c0,0-3-6,1-8c0,0-3.1-5.8-3-10.1s0,0,0,0
		L85.8,169.2"/>
</g>
<g id="Cannoli">
	<path class="st7" d="M187,147.1c0,0,2.5-45,0-73.1c0,0,79.6,10.2,81,89c1,58-57.9,83-76,83c-6.7,0-10.8-77.5-10.8-77.5
		c0.7,2.3-34.6-5.2-79.2-4.5c0,0-27,7-45.6,3.3C40.6,164.1,37.1,153,37.1,153S101.2,99.2,187,147.1z"/>
	<path class="st7" d="M131,66.8c-1.1,1.3-0.7,4,1.9,4.3c3.2,0.3,11.1-8.5,19.5-11.6c8.9-3.2,20.3,7.7,31.7,6c0,0-18.9,4,8.2,10.8
		c0,0-15.2-1.4,2.8,3.7c0,0-11.3,19.9,3,37.9c0,0-17.2-6.6-11.8,13.5c0,0-13.5-1.7-14.3,8.3c-0.2,2.8-18.1-7.2-23.8-8.7
		c-16.2-4.3-51.6,5.9-47.2-3.9c0.7-1.7,9.2-16.2,12.1-35C117.4,70.5,123.4,71.6,131,66.8z"/>
	<path class="st8" d="M102.2,146.3c0,0,18,9.4,12.8,20.7h-12l-17.2-11.7l16-9.3"/>
	<path class="st7" d="M102,163c2,8,6.7,43.9,8.8,48.2c3.6,7.3,7.9,15.9,16.3,21.4c6,3.9,12.3,5.2,12.6,5.3c2.4,0.5,4.3,0.6,4.8,0.6
		c14-0.3,49.2-0.5,53.9,5.9c0,0-16.3-50.7-17.4-75.8L139,165L102,163z"/>
	<path class="st8" d="M76,168c0,0,10.2-3,8.7-9.9c-0.7-3.2-3.6-6.9-10.7-10.8C74.1,147.3,89.8,157.3,76,168z"/>
	<circle class="st9" cx="56" cy="151.1" r="3.8"/>
	<path d="M37.1,153c0,0,2.3,6.8,13.7,5.2C50.8,158.2,41.6,158.1,37.1,153z"/>
	<circle class="st10" cx="56.6" cy="150.3" r="1.6"/>
	<circle class="st11" cx="56.8" cy="149.3" r="0.6"/>
	<path class="st7" d="M85.8,163.8l12.9,15.4c0,0,25.2-11.2,3-31.9l-15.9,8V163.8z"/>
	<path class="st7" d="M86,166c0,0-8.7,17.1-4,30c3.2,8.7,23.8,22.3,38,30c0,0-29-17-19-26c0,0-6-7-2.2-14c0,0-7.3-15-8.8-20
		C89.6,164.7,86.2,168,86,166z"/>
	<path class="st11" d="M111,163c0,0-0.2,6.4-5,12c-2.4,2.8,5.2,24.5,10,27c0,0-5.6-19.6,1-25c0,0-2.6,45.7,27,53c0,0,0.4-10.5,6-11
		c3.9-0.3,17,9.9,17,5c0-7,17.8,6.5,22,9c0,0-21.3-59.6-13-65l-37-3L111,163z"/>
	<path class="st11" d="M106.8,127.5c0,0,9-38.1,28.5-49.3c0,0-20.5,14.4-16.5,36.3c0,0,17.9-30.8,47.5-40.5c0,0-29.4,13-32,37.1
		c0,0,18-14,38.6-13.3c0,0-34.6,8-29.5,24.7c0,0,12.4-15.7,31.6-5.7c0,0-25.9,3.1-11.6,19.4C163.6,136.3,142.7,127.4,106.8,127.5z"
		/>
	<path class="st11" d="M76.3,139.2c0,0,34.3-12.9,74.8,6c0,0,28.2,7.9,6-3.4S103.1,124.2,76.3,139.2z"/>
	<path class="st11" d="M85.8,155.8c0,0,6.7,1.5,12.1-3.9c0,0-2.6,6.1-11.4,6c0,0,11.9,3.1,18.5,0c0,0-1.8,3.5-19.2,2.2
		c0,0,5.7,3.2,15.9,3.1c0,0-10.2,0.8-15.9-1c0,0,2.6,2.6,5.7,3.4c0,0-3.4-0.3-5.7-2.4C83.6,161.2,85.8,155.8,85.8,155.8z"/>
	<path class="st11" d="M85.8,169.2c0,0-3.3,14.7-1.8,20.8c1.2,5.1,8,13,13,16c0,0-10-12-7-19c0,0-3-6,1-8c0,0-3.1-5.8-3-10.1
		s0,0,0,0L85.8,169.2"/>
	<path class="st11" d="M187,147c0,0,3-56,0-73c0,0,8,21,5,75c0,0,17-18,26-57c0,0,1,35-22,64c0,0,32-10,49-38c0,0-9,34-46,44
		c0,0,37,3,57-4c0,0-14,12-56,10c0,0,35,11,54,26c0,0-13-10-55-18c0,0,17,13,28,50c0,0-12-28-32-45c0,0,3,18-3,65L187,147z"/>
	<path class="st11" d="M187,147.1c0,0-1,9.9-5,14.9c0,0,4.7,5.7,6.7,18.7L187,147.1z"/>
</g>
<g id="tail" class="st0">
	<path class="st6" d="M186.6,148.7c0,0,7.2-35.4,2.4-70.7c0,0,11,30,9,65c0,0,15,0,41-29c0,0-14,32-39,42c0,0,25,1,45,10
		c0,0-12-1-46,3c0,0,8,10,16,55c0,0-4-15-25-48c0,0-3,14,2,67c0,0-11-57-9.3-73.2C182.7,169.8,180.3,158.8,186.6,148.7z"/>
</g>
</svg>
