<?xml version="1.0" encoding="utf-8"?>
<!-- Generator: Adobe Illustrator 22.0.1, SVG Export Plug-In . SVG Version: 6.00 Build 0)  -->
<svg version="1.1" xmlns="http://www.w3.org/2000/svg" xmlns:xlink="http://www.w3.org/1999/xlink" x="0px" y="0px"
	 viewBox="0 0 216 216" style="enable-background:new 0 0 216 216;" xml:space="preserve">
<style type="text/css">
	.st0{fill:#603913;stroke:#F39424;stroke-width:22;stroke-miterlimit:10;}
	.st1{stroke:#231F20;stroke-miterlimit:10;}
	.st2{fill:#F39424;}
	.st3{fill:#FBB040;}
	.st4{fill:#FB8D2C;}
</style>
<g id="Layer_1">
	<polygon class="st0" points="108,11.1 12.1,11.1 25.9,203 108,203 190.1,203 203.9,11.1 	"/>
	<line class="st1" x1="26" y1="52.5" x2="190" y2="52.5"/>
	<line class="st1" x1="28.4" y1="81.1" x2="187.6" y2="81.1"/>
	<line class="st1" x1="30.2" y1="109.7" x2="186" y2="109.7"/>
	<line class="st1" x1="32.3" y1="138.3" x2="183.5" y2="138.3"/>
	<line class="st1" x1="34.5" y1="166.8" x2="181.5" y2="166.8"/>
	<ellipse class="st2" cx="106" cy="91" rx="12" ry="4.7"/>
	<path class="st2" d="M106.1,88.8c-16.8,0-30.4,13.6-30.4,30.4s13.6,30.4,30.4,30.4s30.4-13.6,30.4-30.4S122.9,88.8,106.1,88.8z
		 M106.1,140.2c-13.7,0-24.8-11.1-24.8-24.8s11.1-24.8,24.8-24.8s24.8,11.1,24.8,24.8S119.8,140.2,106.1,140.2z"/>
</g>
<g id="Layer_2">
	<circle class="st3" cx="15.4" cy="59" r="6.5"/>
	<circle class="st3" cx="12.1" cy="11.1" r="6.5"/>
	<circle class="st3" cx="25.1" cy="203" r="6.5"/>
	<circle class="st4" cx="-131.3" cy="179" r="6.5"/>
	<circle class="st3" cx="81.3" cy="203" r="6.5"/>
	<circle class="st3" cx="134.3" cy="203" r="6.5"/>
	<circle class="st3" cx="21.9" cy="154.6" r="6.5"/>
	<circle class="st3" cx="18.6" cy="107" r="6.5"/>
	<g>
		<circle class="st3" cx="200" cy="59" r="6.5"/>
		<circle class="st3" cx="203.3" cy="11.1" r="6.5"/>
		<circle class="st3" cx="190.3" cy="203" r="6.5"/>
		<circle class="st3" cx="193.5" cy="154.6" r="6.5"/>
		<circle class="st3" cx="196.8" cy="107" r="6.5"/>
	</g>
	<circle class="st3" cx="72.6" cy="9.7" r="6.5"/>
	<circle class="st3" cx="143.4" cy="9.7" r="6.5"/>
</g>
</svg>
