<?xml version="1.0" encoding="utf-8"?>
<!-- Generator: Adobe Illustrator 22.0.1, SVG Export Plug-In . SVG Version: 6.00 Build 0)  -->
<svg version="1.1" xmlns="http://www.w3.org/2000/svg" xmlns:xlink="http://www.w3.org/1999/xlink" x="0px" y="0px"
	 viewBox="0 0 216 216" style="enable-background:new 0 0 216 216;" xml:space="preserve">
<style type="text/css">
	.st0{fill:#603913;stroke:#F39424;stroke-width:22;stroke-miterlimit:10;}
	.st1{stroke:#231F20;stroke-miterlimit:10;}
	.st2{fill:#F39424;}
	.st3{fill:#FBB040;}
</style>
<g id="Layer_1">
	<polygon class="st0" points="108.3,224.1 12.4,224.1 26.2,416 108.3,416 190.4,416 204.3,224.1 	"/>
	<line class="st1" x1="26.3" y1="265.6" x2="190.3" y2="265.6"/>
	<line class="st1" x1="28.7" y1="294.2" x2="187.9" y2="294.2"/>
	<line class="st1" x1="30.5" y1="322.7" x2="186.3" y2="322.7"/>
	<line class="st1" x1="32.6" y1="351.3" x2="183.8" y2="351.3"/>
	<line class="st1" x1="34.8" y1="379.9" x2="181.8" y2="379.9"/>
	<ellipse class="st2" cx="106.3" cy="304.1" rx="12" ry="4.7"/>
	<path class="st2" d="M106.4,301.8c-16.8,0-30.4,13.6-30.4,30.4s13.6,30.4,30.4,30.4s30.4-13.6,30.4-30.4S123.2,301.8,106.4,301.8z
		 M106.4,353.3c-13.7,0-24.8-11.1-24.8-24.8c0-13.7,11.1-24.8,24.8-24.8s24.8,11.1,24.8,24.8C131.2,342.2,120.1,353.3,106.4,353.3z"
		/>
	<circle class="st3" cx="15.7" cy="272.1" r="6.5"/>
	<circle class="st3" cx="12.4" cy="224.1" r="6.5"/>
	<circle class="st3" cx="25.4" cy="416" r="6.5"/>
	<circle class="st3" cx="81.6" cy="416" r="6.5"/>
	<circle class="st3" cx="134.6" cy="416" r="6.5"/>
	<circle class="st3" cx="22.2" cy="367.7" r="6.5"/>
	<circle class="st3" cx="18.9" cy="320.1" r="6.5"/>
	<g>
		<circle class="st3" cx="200.3" cy="272.1" r="6.5"/>
		<circle class="st3" cx="203.6" cy="224.1" r="6.5"/>
		<circle class="st3" cx="190.6" cy="416" r="6.5"/>
		<circle class="st3" cx="193.8" cy="367.7" r="6.5"/>
		<circle class="st3" cx="197.1" cy="320.1" r="6.5"/>
	</g>
	<circle class="st3" cx="72.9" cy="222.8" r="6.5"/>
	<circle class="st3" cx="143.7" cy="222.8" r="6.5"/>
</g>
<g id="Layer_2">
	<path class="st0" d="M222.6,235.8c0,0-27.8-19.5-43.3-59.5c-10.7-27.6-32.3-59.5-71.4-59.5s-60.7,31.9-71.4,59.5
		c-15.5,40-43.3,59.5-43.3,59.5"/>
	<circle class="st3" cx="108" cy="116.9" r="6.5"/>
	<circle class="st3" cx="56.2" cy="141.6" r="6.5"/>
	<circle class="st3" cx="30.1" cy="188.4" r="6.5"/>
	<circle class="st3" cx="108" cy="116.9" r="6.5"/>
	<circle class="st3" cx="159.8" cy="141.6" r="6.5"/>
	<circle class="st3" cx="185.9" cy="188.4" r="6.5"/>
	<line class="st1" x1="56.2" y1="161" x2="159.8" y2="161"/>
	<line class="st1" x1="43.3" y1="189.6" x2="172.8" y2="189.6"/>
</g>
</svg>
