<?xml version="1.0" encoding="utf-8"?>
<!-- Generator: Adobe Illustrator 22.0.1, SVG Export Plug-In . SVG Version: 6.00 Build 0)  -->
<svg version="1.1" id="Layer_1" xmlns="http://www.w3.org/2000/svg" xmlns:xlink="http://www.w3.org/1999/xlink" x="0px" y="0px"
	 viewBox="0 0 144 72" style="enable-background:new 0 0 144 72;" xml:space="preserve">
<style type="text/css">
	.st0{fill:#FBC258;stroke:#F7941D;stroke-miterlimit:10;}
</style>
<g>
	<ellipse transform="matrix(0.7278 -0.6858 0.6858 0.7278 -16.497 51.7183)" class="st0" cx="56.9" cy="46.6" rx="10.6" ry="3.5"/>
	<ellipse transform="matrix(0.7278 -0.6858 0.6858 0.7278 -17.0336 52.8664)" class="st0" cx="58.1" cy="47.9" rx="10.6" ry="3.5"/>
</g>
<g>
	<ellipse transform="matrix(0.1168 -0.9931 0.9931 0.1168 24.5763 144.6874)" class="st0" cx="93.6" cy="58.5" rx="3.5" ry="10.6"/>
	<ellipse transform="matrix(0.1168 -0.9931 0.9931 0.1168 26.4476 143.3803)" class="st0" cx="93.8" cy="56.8" rx="3.5" ry="10.6"/>
</g>
<g>
	<ellipse transform="matrix(0.1168 -0.9931 0.9931 0.1168 -8.3979 108.1658)" class="st0" cx="56.6" cy="58.8" rx="3.5" ry="10.6"/>
	<ellipse transform="matrix(0.1168 -0.9931 0.9931 0.1168 -6.5266 106.8587)" class="st0" cx="56.8" cy="57.1" rx="3.5" ry="10.6"/>
</g>
<g>
	<ellipse transform="matrix(0.9275 -0.3738 0.3738 0.9275 -16.4825 21.1458)" class="st0" cx="46.3" cy="53.1" rx="10.6" ry="3.5"/>
	<ellipse transform="matrix(0.9275 -0.3738 0.3738 0.9275 -17.0314 21.5012)" class="st0" cx="46.9" cy="54.7" rx="10.6" ry="3.5"/>
</g>
<g>
	<ellipse transform="matrix(0.8749 -0.4843 0.4843 0.8749 -19.3545 45.5804)" class="st0" cx="78.5" cy="60.3" rx="3.5" ry="10.6"/>
	<ellipse transform="matrix(0.8749 -0.4843 0.4843 0.8749 -18.7636 46.2041)" class="st0" cx="80" cy="59.4" rx="3.5" ry="10.6"/>
</g>
<g>
	<ellipse transform="matrix(0.1795 -0.9837 0.9837 0.1795 0.8262 147.0434)" class="st0" cx="88.6" cy="73" rx="3.5" ry="10.6"/>
	<ellipse transform="matrix(0.1795 -0.9837 0.9837 0.1795 2.7413 145.9605)" class="st0" cx="88.9" cy="71.3" rx="3.5" ry="10.6"/>
</g>
<g>
	
		<ellipse transform="matrix(0.1795 -0.9837 0.9837 0.1795 14.7894 161.4047)" class="st0" cx="104.2" cy="71.8" rx="3.5" ry="10.6"/>
	
		<ellipse transform="matrix(0.1795 -0.9837 0.9837 0.1795 16.7045 160.3218)" class="st0" cx="104.5" cy="70.1" rx="3.5" ry="10.6"/>
</g>
<g>
	<ellipse transform="matrix(0.1795 -0.9837 0.9837 0.1795 6.8828 140.3364)" class="st0" cx="87.6" cy="66" rx="3.5" ry="10.6"/>
	<ellipse transform="matrix(0.1795 -0.9837 0.9837 0.1795 8.798 139.2536)" class="st0" cx="87.9" cy="64.4" rx="3.5" ry="10.6"/>
</g>
<g>
	<ellipse transform="matrix(0.1795 -0.9837 0.9837 0.1795 26.8868 175.958)" class="st0" cx="118.9" cy="71.9" rx="3.5" ry="10.6"/>
	
		<ellipse transform="matrix(0.1795 -0.9837 0.9837 0.1795 28.8019 174.8751)" class="st0" cx="119.2" cy="70.2" rx="3.5" ry="10.6"/>
</g>
<g>
	
		<ellipse transform="matrix(0.1795 -0.9837 0.9837 0.1795 37.1961 184.9365)" class="st0" cx="129.5" cy="70.2" rx="3.5" ry="10.6"/>
	
		<ellipse transform="matrix(0.1795 -0.9837 0.9837 0.1795 39.1112 183.8536)" class="st0" cx="129.8" cy="68.5" rx="3.5" ry="10.6"/>
</g>
<g>
	
		<ellipse transform="matrix(0.1795 -0.9837 0.9837 0.1795 23.1062 161.4784)" class="st0" cx="108.4" cy="66.9" rx="3.5" ry="10.6"/>
	
		<ellipse transform="matrix(0.1795 -0.9837 0.9837 0.1795 25.0213 160.3956)" class="st0" cx="108.7" cy="65.2" rx="3.5" ry="10.6"/>
</g>
<g>
	<ellipse transform="matrix(0.1795 -0.9837 0.9837 0.1795 7.9832 151.6023)" class="st0" cx="94.9" cy="71" rx="3.5" ry="10.6"/>
	<ellipse transform="matrix(0.1795 -0.9837 0.9837 0.1795 9.8983 150.5194)" class="st0" cx="95.2" cy="69.3" rx="3.5" ry="10.6"/>
</g>
<g>
	<ellipse transform="matrix(0.1795 -0.9837 0.9837 0.1795 11.9978 111.8537)" class="st0" cx="73.1" cy="48.7" rx="3.5" ry="10.6"/>
	<ellipse transform="matrix(0.1795 -0.9837 0.9837 0.1795 13.913 110.7708)" class="st0" cx="73.4" cy="47" rx="3.5" ry="10.6"/>
</g>
<g>
	<ellipse transform="matrix(0.1795 -0.9837 0.9837 0.1795 24.3396 167.711)" class="st0" cx="112.7" cy="69.3" rx="3.5" ry="10.6"/>
	<ellipse transform="matrix(0.1795 -0.9837 0.9837 0.1795 26.2548 166.6281)" class="st0" cx="113" cy="67.6" rx="3.5" ry="10.6"/>
</g>
<g>
	<ellipse transform="matrix(0.3557 -0.9346 0.9346 0.3557 -42.8924 79.8089)" class="st0" cx="36.4" cy="71" rx="3.5" ry="10.6"/>
	<ellipse transform="matrix(0.3557 -0.9346 0.9346 0.3557 -40.9986 79.3458)" class="st0" cx="37.1" cy="69.4" rx="3.5" ry="10.6"/>
</g>
<g>
	<ellipse transform="matrix(0.3557 -0.9346 0.9346 0.3557 -47.1266 79.2945)" class="st0" cx="34" cy="73.8" rx="3.5" ry="10.6"/>
	<ellipse transform="matrix(0.3557 -0.9346 0.9346 0.3557 -45.2328 78.8314)" class="st0" cx="34.6" cy="72.2" rx="3.5" ry="10.6"/>
</g>
<g>
	<ellipse transform="matrix(0.3557 -0.9346 0.9346 0.3557 -35.5103 80.5489)" class="st0" cx="40.7" cy="66" rx="3.5" ry="10.6"/>
	<ellipse transform="matrix(0.3557 -0.9346 0.9346 0.3557 -33.6166 80.0858)" class="st0" cx="41.3" cy="64.4" rx="3.5" ry="10.6"/>
</g>
<g>
	
		<ellipse transform="matrix(4.980518e-02 -0.9988 0.9988 4.980518e-02 -20.7389 121.9467)" class="st0" cx="53.7" cy="71.9" rx="3.5" ry="10.6"/>
	
		<ellipse transform="matrix(4.980518e-02 -0.9988 0.9988 4.980518e-02 -18.9443 120.4022)" class="st0" cx="53.8" cy="70.2" rx="3.5" ry="10.6"/>
</g>
<g>
	<ellipse transform="matrix(0.9708 -0.24 0.24 0.9708 -14.8344 13.4238)" class="st0" cx="47.7" cy="67.6" rx="10.6" ry="3.5"/>
	<ellipse transform="matrix(0.9708 -0.24 0.24 0.9708 -14.4463 13.2761)" class="st0" cx="47.3" cy="66" rx="10.6" ry="3.5"/>
</g>
<g>
	<ellipse transform="matrix(0.9708 -0.24 0.24 0.9708 -14.8964 19.6427)" class="st0" cx="73.2" cy="71" rx="10.6" ry="3.5"/>
	<ellipse transform="matrix(0.9708 -0.24 0.24 0.9708 -14.5084 19.4951)" class="st0" cx="72.8" cy="69.3" rx="10.6" ry="3.5"/>
</g>
<g>
	<ellipse transform="matrix(0.9708 -0.24 0.24 0.9708 -14.1069 17.8735)" class="st0" cx="66.3" cy="66.9" rx="10.6" ry="3.5"/>
	<ellipse transform="matrix(0.9708 -0.24 0.24 0.9708 -13.7188 17.7259)" class="st0" cx="65.9" cy="65.2" rx="10.6" ry="3.5"/>
</g>
<g>
	<ellipse transform="matrix(0.9708 -0.24 0.24 0.9708 -12.9539 17.7833)" class="st0" cx="66.5" cy="62.1" rx="10.6" ry="3.5"/>
	<ellipse transform="matrix(0.9708 -0.24 0.24 0.9708 -12.5658 17.6357)" class="st0" cx="66.1" cy="60.4" rx="10.6" ry="3.5"/>
</g>
<g>
	<ellipse transform="matrix(0.9708 -0.24 0.24 0.9708 -9.8429 20.0121)" class="st0" cx="77.3" cy="50.4" rx="10.6" ry="3.5"/>
	<ellipse transform="matrix(0.9708 -0.24 0.24 0.9708 -9.4548 19.8645)" class="st0" cx="76.8" cy="48.8" rx="10.6" ry="3.5"/>
</g>
<g>
	<ellipse transform="matrix(0.2471 -0.969 0.969 0.2471 1.3167 129.439)" class="st0" cx="83.9" cy="63.9" rx="3.5" ry="10.6"/>
	<ellipse transform="matrix(0.2471 -0.969 0.969 0.2471 3.2489 128.5971)" class="st0" cx="84.4" cy="62.2" rx="3.5" ry="10.6"/>
</g>
<g>
	<ellipse transform="matrix(0.2471 -0.969 0.969 0.2471 8.0753 121.3439)" class="st0" cx="82.1" cy="55.5" rx="3.5" ry="10.6"/>
	<ellipse transform="matrix(0.2471 -0.969 0.969 0.2471 10.0075 120.502)" class="st0" cx="82.5" cy="53.8" rx="3.5" ry="10.6"/>
</g>
<g>
	<ellipse transform="matrix(0.2471 -0.969 0.969 0.2471 -2.3377 104.2655)" class="st0" cx="65.9" cy="53.6" rx="3.5" ry="10.6"/>
	<ellipse transform="matrix(0.2471 -0.969 0.969 0.2471 -0.4055 103.4235)" class="st0" cx="66.3" cy="52" rx="3.5" ry="10.6"/>
</g>
<g>
	<ellipse transform="matrix(0.9926 -0.1214 0.1214 0.9926 -6.794 14.5649)" class="st0" cx="116.2" cy="63.1" rx="10.6" ry="3.5"/>
	<ellipse transform="matrix(0.9926 -0.1214 0.1214 0.9926 -6.5886 14.527)" class="st0" cx="116" cy="61.4" rx="10.6" ry="3.5"/>
</g>
<g>
	<ellipse transform="matrix(0.6626 -0.749 0.749 0.6626 -11.0987 93.8399)" class="st0" cx="98.6" cy="59.2" rx="3.5" ry="10.6"/>
	<ellipse transform="matrix(0.6626 -0.749 0.749 0.6626 -9.7512 94.2582)" class="st0" cx="99.7" cy="58" rx="3.5" ry="10.6"/>
</g>
<g>
	<ellipse transform="matrix(0.2471 -0.969 0.969 0.2471 11.5665 150.323)" class="st0" cx="102.5" cy="67.7" rx="3.5" ry="10.6"/>
	<ellipse transform="matrix(0.2471 -0.969 0.969 0.2471 13.4986 149.481)" class="st0" cx="102.9" cy="66.1" rx="3.5" ry="10.6"/>
</g>
<g>
	<ellipse transform="matrix(0.2488 -0.9686 0.9686 0.2488 -24.9178 90.1955)" class="st0" cx="45.7" cy="61.2" rx="3.5" ry="10.6"/>
	<ellipse transform="matrix(0.2488 -0.9686 0.9686 0.2488 -22.9856 89.3598)" class="st0" cx="46.1" cy="59.5" rx="3.5" ry="10.6"/>
</g>
<g>
	
		<ellipse transform="matrix(0.9975 -7.011974e-02 7.011974e-02 0.9975 -4.4262 2.8251)" class="st0" cx="38" cy="64.5" rx="10.6" ry="3.5"/>
	
		<ellipse transform="matrix(0.9975 -7.011974e-02 7.011974e-02 0.9975 -4.3064 2.8124)" class="st0" cx="37.9" cy="62.7" rx="10.6" ry="3.5"/>
</g>
<g>
	<ellipse class="st0" cx="31.6" cy="-41" rx="3.3" ry="10"/>
	<ellipse class="st0" cx="33.2" cy="-41" rx="3.3" ry="10"/>
</g>
<g>
	<ellipse transform="matrix(0.9465 -0.3228 0.3228 0.9465 -20.4217 12.0881)" class="st0" cx="26.2" cy="67.6" rx="10.6" ry="3.5"/>
	<ellipse transform="matrix(0.9465 -0.3228 0.3228 0.9465 -19.9266 11.822)" class="st0" cx="25.7" cy="66" rx="10.6" ry="3.5"/>
</g>
<g>
	<ellipse transform="matrix(0.9465 -0.3228 0.3228 0.9465 -21.3161 8.3212)" class="st0" cx="14.4" cy="68.4" rx="10.6" ry="3.5"/>
	<ellipse transform="matrix(0.9465 -0.3228 0.3228 0.9465 -20.821 8.0552)" class="st0" cx="13.9" cy="66.8" rx="10.6" ry="3.5"/>
</g>
<g>
	<ellipse transform="matrix(0.9465 -0.3228 0.3228 0.9465 -19.1247 11.9649)" class="st0" cx="26.5" cy="63.6" rx="10.6" ry="3.5"/>
	<ellipse transform="matrix(0.9465 -0.3228 0.3228 0.9465 -18.6296 11.6989)" class="st0" cx="26" cy="62" rx="10.6" ry="3.5"/>
</g>
<g>
	<ellipse transform="matrix(0.8635 -0.5043 0.5043 0.8635 -23.8079 26.1401)" class="st0" cx="36.4" cy="57.1" rx="10.6" ry="3.5"/>
	<ellipse transform="matrix(0.8635 -0.5043 0.5043 0.8635 -23.1782 25.5009)" class="st0" cx="35.5" cy="55.6" rx="10.6" ry="3.5"/>
</g>
<g>
	<ellipse class="st0" cx="107.5" cy="-13.8" rx="3.3" ry="10"/>
	<ellipse class="st0" cx="109.2" cy="-13.8" rx="3.3" ry="10"/>
</g>
<g>
	<ellipse class="st0" cx="13.3" cy="-17.3" rx="3.3" ry="10"/>
	<ellipse class="st0" cx="14.9" cy="-17.3" rx="3.3" ry="10"/>
</g>
<g>
	<ellipse transform="matrix(0.7177 -0.6964 0.6964 0.7177 27.5737 -10.1203)" class="st0" cx="1.3" cy="-39.1" rx="10" ry="3.3"/>
	<ellipse transform="matrix(0.7177 -0.6964 0.6964 0.7177 27.0811 -9.003)" class="st0" cx="2.4" cy="-37.9" rx="10" ry="3.3"/>
</g>
<g>
	<ellipse transform="matrix(0.6964 -0.7177 0.7177 0.6964 51.9439 95.8338)" class="st0" cx="139.2" cy="-13.5" rx="3.3" ry="10"/>
	<ellipse transform="matrix(0.6964 -0.7177 0.7177 0.6964 50.7634 95.3758)" class="st0" cx="138.1" cy="-12.3" rx="3.3" ry="10"/>
</g>
<g>
	<ellipse transform="matrix(0.6964 -0.7177 0.7177 0.6964 53.4978 55.0923)" class="st0" cx="91.9" cy="-35.7" rx="3.3" ry="10"/>
	<ellipse transform="matrix(0.6964 -0.7177 0.7177 0.6964 52.3172 54.6342)" class="st0" cx="90.7" cy="-34.5" rx="3.3" ry="10"/>
</g>
<g>
	<ellipse transform="matrix(0.6964 -0.7177 0.7177 0.6964 29.3042 25.4045)" class="st0" cx="44.7" cy="-21.9" rx="3.3" ry="10"/>
	<ellipse transform="matrix(0.6964 -0.7177 0.7177 0.6964 28.1237 24.9465)" class="st0" cx="43.5" cy="-20.8" rx="3.3" ry="10"/>
</g>
<g>
	<ellipse transform="matrix(0.6964 -0.7177 0.7177 0.6964 39.5292 52.8239)" class="st0" cx="82.2" cy="-20.3" rx="3.3" ry="10"/>
	<ellipse transform="matrix(0.6964 -0.7177 0.7177 0.6964 38.3487 52.3658)" class="st0" cx="81.1" cy="-19.1" rx="3.3" ry="10"/>
</g>
<g>
	<ellipse transform="matrix(0.6964 -0.7177 0.7177 0.6964 41.5038 36.116)" class="st0" cx="63.4" cy="-31" rx="3.3" ry="10"/>
	<ellipse transform="matrix(0.6964 -0.7177 0.7177 0.6964 40.3233 35.6579)" class="st0" cx="62.3" cy="-29.8" rx="3.3" ry="10"/>
</g>
</svg>
