<svg xmlns="http://www.w3.org/2000/svg" viewBox="0 0 129.33 597.85"><defs><style>.cls-1{fill:#052300;}.cls-2{fill:#073500;}</style></defs><title>javafern1</title><g id="Layer_1" data-name="Layer 1"><path class="cls-1" d="M376.39,214.12c5.2,30.36,2.35,61.56-2.83,91.93-10.37,60.72-30,120-34.09,181.46-2.61,39.73,7.32,97.19,57.06,168.88l.53.39-5,6.7-9.18-8.93c-65.61-71.67-76.23-135.3-78.4-164.55-2.93-39.48,5.8-79.33,19.5-144,13.37-63.13,19.86-67.8,22.5-96,3.66-39.14-2.64-96.47-51.34-170.84a182.1,182.1,0,0,1,40.65,37C366.58,154.12,373,194.48,376.39,214.12Z" transform="translate(-267.73 -79.16)"/><path class="cls-2" d="M323.63,562.35c-17.59-48.27-17.21-113.91-8.57-161.08C331.11,313.53,347,317,349.59,233.68S295.16,79.16,295.16,79.16s41.49,43.77,5.11,184.66c-5.87,22.7-28.93,81.18-32.43,174.51-1.71,45.58,17.73,114.36,45.27,161.76C342,649.75,379,677,379,677s9.33-7.34,13.08-13.53C392.08,663.48,342.33,613.67,323.63,562.35Z" transform="translate(-267.73 -79.16)"/></g></svg>