<?xml version="1.0" encoding="utf-8"?>
<!-- Generator: Adobe Illustrator 22.0.1, SVG Export Plug-In . SVG Version: 6.00 Build 0)  -->
<svg version="1.1" xmlns="http://www.w3.org/2000/svg" xmlns:xlink="http://www.w3.org/1999/xlink" x="0px" y="0px"
	 viewBox="0 0 720 720" style="enable-background:new 0 0 720 720;" xml:space="preserve">
<style type="text/css">
	.st0{fill:#052300;}
	.st1{fill:none;stroke:#000000;stroke-width:0.5;stroke-linecap:round;stroke-linejoin:round;}
	.st2{fill:#073500;stroke:#231F20;stroke-miterlimit:10;}
</style>
<g id="Layer_2">
</g>
<g id="Layer_1">
	<g id="XMLID_1_">
		<g>
			<path class="st0" d="M268.4,99.4l5-6.7l9.2,8.9c65.6,71.7,76.2,135.3,78.4,164.5c3.3,44-6.8,88.3-19.5,144
				c-13.9,61.2-21.7,66.5-24.9,96c-4.2,39,2.3,96.1,53.7,170.8c-11-7.3-26.2-19.1-40.6-37c-30.8-38-37.2-78.4-40.6-98
				c-5.2-30.4-2.3-61.6,2.8-91.9c10.4-60.7,30-120,34.1-181.5c2.6-39.7-7.3-97.2-57.1-168.9L268.4,99.4z"/>
		</g>
		<g>
			<path class="st1" d="M273.4,92.7l9.2,8.9c65.6,71.7,76.2,135.3,78.4,164.5c3.3,44-6.8,88.3-19.5,144
				c-13.9,61.2-21.7,66.5-24.9,96c-4.2,39,2.3,96.1,53.7,170.8c-11-7.3-26.2-19.1-40.6-37c-30.8-38-37.2-78.4-40.6-98
				c-5.2-30.4-2.3-61.6,2.8-91.9c10.4-60.7,30-120,34.1-181.5c2.6-39.7-7.3-97.2-57.1-168.9"/>
			<line class="st1" x1="267.7" y1="100.3" x2="268.4" y2="99.4"/>
			<line class="st1" x1="268.4" y1="99.4" x2="273.4" y2="92.7"/>
			<path class="st1" d="M283.5,79.2c-3.4,4.5-6.7,9-10.1,13.5"/>
		</g>
	</g>
	<path class="st2" d="M341.9,193.8c17.6,48.3,17.2,113.9,8.6,161.1c-16.1,87.7-31.9,84.3-34.5,167.6S370.3,677,370.3,677
		s-41.5-43.8-5.1-184.7c5.9-22.7,28.9-81.2,32.4-174.5c1.7-45.6-17.7-114.4-45.3-161.8c-28.9-49.7-65.9-76.9-65.9-76.9
		s-9.3,7.3-13.1,13.5C273.4,92.7,323.2,142.5,341.9,193.8z"/>
</g>
</svg>
