<svg id="Layer_1" data-name="Layer 1" xmlns="http://www.w3.org/2000/svg" viewBox="0 0 123.67 571.68"><defs><style>.cls-1{fill:#052300;}.cls-2{fill:#073500;}</style></defs><title>javafern2</title><path class="cls-1" d="M156,554.53C93.21,486,83.06,425.15,81,397.18c-2.8-37.75,5.55-75.86,18.65-137.7,12.78-60.37,19-64.83,21.52-91.8,3.49-37.42-2.53-92.24-49.1-163.36a174.12,174.12,0,0,1,38.87,35.33c29.43,36.35,35.58,74.94,38.81,93.72,5,29,2.24,58.87-2.71,87.91C137.1,279.34,118.3,336,114.42,394.8c-2.49,38,7,92.93,54.57,161.49l.5.37-4.76,6.4Z" transform="translate(-45.83 -4.32)"/><path class="cls-2" d="M99.28,466.36c-16.82-46.15-16.46-108.93-8.2-154,15.35-83.89,30.54-80.58,33-160.26s-52-147.75-52-147.75,39.68,41.85,4.89,176.58c-5.61,21.71-27.66,77.63-31,166.87-1.64,43.59,17,109.35,43.28,154.68,27.59,47.49,63,73.55,63,73.55s8.93-7,12.51-12.94C164.73,563.06,117.16,515.43,99.28,466.36Z" transform="translate(-45.83 -4.32)"/></svg>