<?xml version="1.0" encoding="utf-8"?>
<!-- Generator: Adobe Illustrator 22.0.1, SVG Export Plug-In . SVG Version: 6.00 Build 0)  -->
<svg version="1.1" id="Layer_1" xmlns="http://www.w3.org/2000/svg" xmlns:xlink="http://www.w3.org/1999/xlink" x="0px" y="0px"
	 viewBox="0 0 216 216" style="enable-background:new 0 0 216 216;" xml:space="preserve">
<style type="text/css">
	.st0{fill:#FFFFFF;stroke:#231F20;stroke-miterlimit:10;}
	.st1{fill:#808080;}
	.st2{opacity:0.7;fill:#BFBFBF;}
	.st3{opacity:0.7;fill:#3E1900;}
	.st4{fill:#F2F2F2;}
	.st5{fill:#606060;}
</style>
<path class="st0" d="M0.3,112.4"/>
<path class="st1" d="M0.3,105.5c0,0,352.2-97.6,1.3,101.7c-0.4,0.2-0.9,0.5-1.3,0.7V105.5z"/>
<path class="st2" d="M100.8,41.1c0,0-68.5-5.5-82.9,41.2L2.4,94.2c0,0,0.2,3.6,3.6,1.9c0,0,1.9,5.1,6.6,0.4l9.1-13
	c0,0,19-19.4,43.6-19.9c0,0,26.5,5.5,49.3,1.7c0,0,17.7-4.7,22.2-13.8c1.5-3.1,11.7-4.6,11.7-7.3L100.8,41.1z"/>
<path class="st2" d="M107.8,65.5l-0.7,7.4l-4,26.3l6.3-26l1-7.6C110.4,65.5,109.5,62.6,107.8,65.5z"/>
<path class="st2" d="M112.1,65.9l18,5.4l1.1,22.9l1.1-24.8l-18-4.5C114.2,64.9,111.4,62.8,112.1,65.9z"/>
<path class="st2" d="M103.6,64.2L93.2,73L81.9,99.1l13.4-25.2l9.7-8C105,66,106.4,63.4,103.6,64.2z"/>
<polygon class="st2" points="32.2,75 43.7,70.9 36.9,72.1 "/>
<polygon class="st2" points="38.9,70.9 51,68.3 43.2,68.7 "/>
<polygon class="st2" points="45.1,68.1 57.4,66 50.8,65.9 "/>
<polygon class="st2" points="52.7,65.5 62.1,65 58,64 "/>
<polygon class="st2" points="61.1,63.9 69.7,65.5 65.1,63.6 "/>
<polygon class="st2" points="69.9,64.4 81.3,68.7 75.3,65.1 "/>
<polygon class="st2" points="78.7,65.6 90.2,69.4 84.2,66.1 "/>
<circle cx="133.5" cy="45.4" r="2.3"/>
<path class="st2" d="M147.7,44.1c0,0,21.4-24.1,52.6-26.8c0,0-29.8,3.1-51.8,26.9L147.7,44.1z"/>
<path class="st2" d="M146.5,44.5c0,0,29.2-13.8,58.9-4.2c0,0-28.6-8.8-58.1,4.5L146.5,44.5z"/>
<path class="st3" d="M113.3,49c0,0,1.3-0.4,2.8,0c0,0,0.6,0.5,0,0.8c0,0-2.7,0.1-2.8,0C113.3,49.8,113.1,49.4,113.3,49z"/>
<path class="st3" d="M103.9,52.8c0,0,1.3-0.4,2.8,0c0,0,0.6,0.5,0,0.8c0,0-2.7,0.1-2.8,0C103.9,53.6,103.6,53.1,103.9,52.8z"/>
<path class="st3" d="M88.3,49.6c0,0,1.3-0.4,2.8,0c0,0,0.6,0.5,0,0.8c0,0-2.7,0.1-2.8,0C88.3,50.4,88.1,49.9,88.3,49.6z"/>
<path class="st3" d="M71.2,52.3c0,0,1.3-0.4,2.8,0c0,0,0.6,0.5,0,0.8c0,0-2.7,0.1-2.8,0C71.2,53.1,70.9,52.6,71.2,52.3z"/>
<path class="st3" d="M83.8,54.4c0,0,1.3-0.4,2.8,0c0,0,0.6,0.5,0,0.8c0,0-2.7,0.1-2.8,0C83.8,55.2,83.6,54.7,83.8,54.4z"/>
<path class="st3" d="M116.5,52.8c0,0,1.3-0.4,2.8,0c0,0,0.6,0.5,0,0.8c0,0-2.7,0.1-2.8,0C116.5,53.6,116.3,53.1,116.5,52.8z"/>
<path class="st3" d="M127.7,53.3c0,0,1.3-0.4,2.8,0c0,0,0.6,0.5,0,0.8c0,0-2.7,0.1-2.8,0C127.7,54.1,127.4,53.7,127.7,53.3z"/>
<path class="st3" d="M120.6,57.4c0,0,1.2-0.7,2.7-0.7c0,0,0.7,0.3,0.2,0.8c0,0-2.6,0.8-2.7,0.7C120.8,58.2,120.5,57.8,120.6,57.4z"
	/>
<path class="st3" d="M111.3,59.5c0,0,1.2-0.7,2.7-0.6c0,0,0.7,0.3,0.2,0.8c0,0-2.6,0.7-2.7,0.6C111.5,60.3,111.1,59.9,111.3,59.5z"
	/>
<path class="st3" d="M100.4,59.7c0,0,1.3-0.4,2.8,0c0,0,0.6,0.5,0,0.8c0,0-2.7,0.1-2.8,0C100.4,60.5,100.2,60,100.4,59.7z"/>
<path class="st3" d="M89.5,59.2c0,0,1.3-0.5,2.8-0.1c0,0,0.6,0.4,0,0.8c0,0-2.7,0.2-2.8,0.1C89.5,60,89.2,59.5,89.5,59.2z"/>
<path class="st3" d="M78.8,58.4c0,0,1.3-0.3,2.8,0.4c0,0,0.5,0.5-0.1,0.8c0,0-2.7-0.2-2.8-0.4C78.7,59.2,78.6,58.7,78.8,58.4z"/>
<path class="st3" d="M65.9,58.2c0,0,1.3-0.4,2.8,0c0,0,0.6,0.5,0,0.8c0,0-2.7,0.1-2.8,0C65.9,59,65.7,58.5,65.9,58.2z"/>
<path class="st3" d="M53.7,60.4c0,0,1.2-0.6,2.8-0.4c0,0,0.7,0.4,0.1,0.8c0,0-2.7,0.5-2.8,0.4C53.9,61.2,53.5,60.8,53.7,60.4z"/>
<path class="st3" d="M40.7,65.7c0,0,1.1-0.8,2.7-0.9c0,0,0.7,0.3,0.3,0.8c0,0-2.6,1-2.7,0.9C40.9,66.5,40.6,66.1,40.7,65.7z"/>
<path class="st3" d="M30,72.7c0,0,0.6-0.6,1.5-0.9c0,0,0.5,0.1,0.3,0.4c0,0-1.4,0.9-1.5,0.9C30.3,73.1,30,73,30,72.7z"/>
<polygon class="st2" points="126.5,60.3 129.1,62.2 142,55.9 146.5,60 146.1,63.6 145.5,60.6 141.7,57.4 129.6,63.6 125.3,60.8 "/>
<polygon class="st2" points="124.7,61.4 126.5,63.5 140.5,60.4 143.9,65.4 142.7,68.8 142.8,65.7 139.9,61.8 126.6,64.9 123.3,62.1 
	"/>
<path class="st4" d="M133.2,43.6c0,0,1.3,0,1.9,1.3C135.7,46.2,133.2,43.6,133.2,43.6z"/>
<path class="st5" d="M157.2,92.8l-60.9,24.3l-35.2,34l-38.8-3.3l-13.7,33l-8.3,20v7.1C0.3,207.9,156.5,120.8,157.2,92.8z"/>
</svg>
