<?xml version="1.0" encoding="utf-8"?>
<!-- Generator: Adobe Illustrator 22.0.1, SVG Export Plug-In . SVG Version: 6.00 Build 0)  -->
<svg version="1.1" id="Layer_1" xmlns="http://www.w3.org/2000/svg" xmlns:xlink="http://www.w3.org/1999/xlink" x="0px" y="0px"
	 viewBox="0 0 144 144" style="enable-background:new 0 0 144 144;" xml:space="preserve">
<style type="text/css">
	.st0{fill:#FFFFFF;stroke:#231F20;stroke-miterlimit:10;}
	.st1{fill:none;}
	.st2{font-family:'HoboStd';}
	.st3{font-size:14px;}
</style>
<path class="st0" d="M116.8,112.6L116.8,112.6c15.3-10.2,25.1-25.6,25.1-42.8c0-30.8-31.3-55.7-69.9-55.7S2.1,39.1,2.1,69.9
	s31.3,55.7,69.9,55.7c8.5,0,16.6-1.2,24.1-3.4l0,0c0,0,12.4,8.5,31.1,9.5C127.2,131.7,113,123.8,116.8,112.6z"/>
<rect x="20.3" y="40.9" class="st1" width="107.8" height="75.3"/>
<text transform="matrix(1 0 0 1 37.7171 52.8697)"><tspan x="0" y="0" class="st2 st3">Treasure? I </tspan><tspan x="-16.9" y="16.8" class="st2 st3">think I saw some </tspan><tspan x="-7.8" y="33.6" class="st2 st3">a little further </tspan><tspan x="17.7" y="50.4" class="st2 st3">down!</tspan></text>
</svg>
