<?xml version="1.0" encoding="utf-8"?>
<!-- Generator: Adobe Illustrator 22.0.1, SVG Export Plug-In . SVG Version: 6.00 Build 0)  -->
<svg version="1.1" id="Layer_1" xmlns="http://www.w3.org/2000/svg" xmlns:xlink="http://www.w3.org/1999/xlink" x="0px" y="0px"
	 viewBox="0 0 144 144" style="enable-background:new 0 0 144 144;" xml:space="preserve">
<style type="text/css">
	.st0{fill:#FFFFFF;stroke:#231F20;stroke-miterlimit:10;}
	.st1{fill:none;}
	.st2{font-family:'HoboStd';}
	.st3{font-size:12px;}
</style>
<path class="st0" d="M27.2,112.6L27.2,112.6C11.9,102.4,2.1,87.1,2.1,69.9c0-30.8,31.3-55.7,69.9-55.7s69.9,24.9,69.9,55.7
	s-31.3,55.7-69.9,55.7c-8.5,0-16.6-1.2-24.1-3.4l0,0c0,0-12.4,8.5-31.1,9.5C16.8,131.7,31,123.8,27.2,112.6z"/>
<rect x="20.3" y="39.6" class="st1" width="107.8" height="75.3"/>
<text transform="matrix(1 0 0 1 25.1873 49.8303)"><tspan x="0" y="0" class="st2 st3">You’re looking for </tspan><tspan x="23" y="14.4" class="st2 st3">treasure?</tspan><tspan x="7" y="28.8" class="st2 st3">You might have </tspan><tspan x="0.7" y="43.2" class="st2 st3">better luck asking </tspan><tspan x="23.8" y="57.6" class="st2 st3">Cannoli...</tspan></text>
</svg>
