<svg xmlns="http://www.w3.org/2000/svg" viewBox="0 0 209.82 139.46"><defs><style>.cls-1{fill:#000b3b;}.cls-2{fill:#000b25;}.cls-3,.cls-5{fill:#fff;}.cls-3,.cls-4{stroke:#000;stroke-miterlimit:10;}.cls-3{stroke-width:0.5px;}.cls-4{fill:#002597;}.cls-6{fill:#000b6d;}</style></defs><title>stromboli</title><g id="body_top_and_tail_fin" data-name="body/top and tail fin"><path class="cls-1" d="M153,109.1a107.39,107.39,0,0,0,8-50.41s8,15.31,12.6,3.78c0,0,42.84,10.08,39.06,50.83s-33.94,60.85-52.08,60.85c-6.72,0-13.44-43.63-13.44-43.63.68,2.29-36.51-1.49-81.06-.84,0,0-28.56,5-43.68-.42S3.09,115,3.09,115,67.15,61.23,153,109.1Z" transform="translate(-3.09 -41.88)"/><path class="cls-1" d="M98,46.51A11.17,11.17,0,0,0,103.89,49c3.21.3,4.12-1.34,9.79-3.61a45,45,0,0,1,17.93-3.53h0s-1.68,7.14,8.82,6.72c0,0-7.92,8,10.08,13,0,0-11.76,4.2,2.1,27.3,0,0-10.5,7.14-6.3,10.08,0,0-10-4.89-16.75-.71a114.74,114.74,0,0,0-15.44-5.43,116.65,116.65,0,0,0-41.27-3.36A97.57,97.57,0,0,1,79.11,73,98.57,98.57,0,0,1,98,46.51Z" transform="translate(-3.09 -41.88)"/></g><g id="fin_shadow" data-name="fin shadow"><path class="cls-2" d="M68.19,108.26s18,9.4,12.79,20.73H69l-17.2-11.67,16-9.27" transform="translate(-3.09 -41.88)"/></g><g id="face_bottomfin_and_hands" data-name="face/ bottomfin and hands"><path class="cls-1" d="M65.7,129a96,96,0,0,0,7.15,19.17c3.62,7.29,7.87,15.86,16.34,21.42a39.71,39.71,0,0,0,12.64,5.28,27.75,27.75,0,0,0,4.85.59c14-.32,49.22-.49,53.91,5.89,0,0-12.34-25.72-13.44-50.82Z" transform="translate(-3.09 -41.88)"/><path class="cls-2" d="M43.12,131.05s9-4.09,7.62-11c-.66-3.23-3.57-6.91-10.69-10.75C40.05,109.35,56.94,120.38,43.12,131.05Z" transform="translate(-3.09 -41.88)"/><circle class="cls-3" cx="18.9" cy="71.25" r="3.78"/><path d="M3.09,115s2.26,6.77,13.68,5.21C16.77,120.2,7.64,120.13,3.09,115Z" transform="translate(-3.09 -41.88)"/><circle class="cls-4" cx="19.53" cy="70.41" r="1.58"/><circle class="cls-5" cx="19.69" cy="69.45" r="0.56"/><path class="cls-1" d="M51.81,125.79l13,15.44s26.4-11,3-31.88l-15.94,8Z" transform="translate(-3.09 -41.88)"/></g><g id="highlights"><path class="cls-6" d="M77.43,129.6s-1.26,3.23-6.07,8.79c-2.41,2.79,7,8.43,11.79,11,0,0-8-10.54-1.42-16,0,0,2,28.28,31.61,35.62,0,0,22.52-5.42,37,3.13,0,0-16.24-35.61-8-41Z" transform="translate(-3.09 -41.88)"/><path class="cls-6" d="M152.61,110.72s12.77-19.48,8-54.81c0,0,10.42,29.53-3.45,59.07,0,0,16-10.33,19.46-44.53,0,0,3.14,37.84-19.09,50.11,0,0,24.51-7.38,37.9-27.61,0,0-4.85,23.37-39.61,32.34,0,0,33.34,3.27,39.61-1.86,0,0-6.1,9.64-42.8,6.25,0,0,2.34,6,15.73,10,0,0-13.68-1.83-19.66-7.89C148.68,131.78,146.29,120.8,152.61,110.72Z" transform="translate(-3.09 -41.88)"/><path class="cls-6" d="M72.85,89.51s9.42-24.11,29-35.31c0,0-20.08,15-19.23,32.05,0,0,13.68-30.77,45.3-38.89,0,0-27.78,15.81-34.61,38.89,0,0,11.47-18.59,32.05-17.81,0,0-20.94,8.09-20.09,21.07,0,0,15.87-11.07,31.63-5.82,0,0-36.87,2.36-7.3,14.61C129.56,98.3,108.65,89.35,72.85,89.51Z" transform="translate(-3.09 -41.88)"/><path class="cls-6" d="M42.33,101.21s34.25-12.86,74.85,6c0,0,28.16,7.88,6-3.42S69.08,86.19,42.33,101.21Z" transform="translate(-3.09 -41.88)"/><path class="cls-6" d="M51.81,117.77a13.81,13.81,0,0,0,12.08-3.9s-2.57,6.14-11.44,6c0,0,11.94,3.1,18.52,0,0,0-1.75,3.52-19.16,2.24,0,0,5.67,3.18,15.92,3.14,0,0-10.15.81-15.92-1a15,15,0,0,0,5.67,3.42,11.1,11.1,0,0,1-5.67-2.42C49.57,123.22,51.81,117.77,51.81,117.77Z" transform="translate(-3.09 -41.88)"/></g></svg>