<?xml version="1.0" encoding="utf-8"?>
<!-- Generator: Adobe Illustrator 22.0.1, SVG Export Plug-In . SVG Version: 6.00 Build 0)  -->
<svg version="1.1" xmlns="http://www.w3.org/2000/svg" xmlns:xlink="http://www.w3.org/1999/xlink" x="0px" y="0px"
	 viewBox="0 0 216 216" style="enable-background:new 0 0 216 216;" xml:space="preserve">
<style type="text/css">
	.st0{fill:#0010A2;}
	.st1{fill:#07006F;}
	.st2{fill:#FFFFFF;stroke:#000000;stroke-width:0.5;stroke-miterlimit:10;}
	.st3{fill:#002597;stroke:#000000;stroke-miterlimit:10;}
	.st4{fill:#FFFFFF;}
	.st5{fill:#1B31FF;}
</style>
<g id="body_x2F_top_and_tail_fin">
	<path class="st0" d="M63,109.1c0,0-10.5-22.3-8-50.4c0,0-8,15.3-12.6,3.8c0,0-42.8,10.1-39.1,50.8s33.9,60.9,52.1,60.9
		c6.7,0,13.4-43.6,13.4-43.6c-0.7,2.3,36.5-1.5,81.1-0.8c0,0,28.6,5,43.7-0.4c15.1-5.5,19.3-14.3,19.3-14.3S148.8,61.2,63,109.1z"/>
	<path class="st0" d="M118,46.5c-1.3,1-3.3,2.3-5.9,2.5c-3.2,0.3-4.1-1.3-9.8-3.6c-8.8-3.5-15.4-3.6-17.9-3.5c0,0,0,0,0,0
		s1.7,7.1-8.8,6.7c0,0,7.9,8-10.1,13c0,0,11.8,4.2-2.1,27.3c0,0,10.5,7.1,6.3,10.1c0,0,10-4.9,16.8-0.7c4.6-1.9,9.7-3.9,15.4-5.4
		c16.2-4.3,30.6-4.4,41.3-3.4c-1.4-4.9-3.4-10.6-6.3-16.5C131.1,61,123.8,52.3,118,46.5z"/>
</g>
<g id="fin_shadow">
	<path class="st1" d="M147.8,108.3c0,0-18,9.4-12.8,20.7h12l17.2-11.7l-16-9.3"/>
</g>
<g id="face_x2F__bottomfin_and_hands">
	<path class="st0" d="M150.3,129c-2,8-5,14.9-7.1,19.2c-3.6,7.3-7.9,15.9-16.3,21.4c-6,3.9-12.3,5.2-12.6,5.3
		c-2.4,0.5-4.3,0.6-4.8,0.6c-14-0.3-49.2-0.5-53.9,5.9c0,0,12.3-25.7,13.4-50.8L150.3,129z"/>
	<path class="st1" d="M172.9,131.1c0,0-9-4.1-7.6-11c0.7-3.2,3.6-6.9,10.7-10.8C175.9,109.3,159.1,120.4,172.9,131.1z"/>
	<circle class="st2" cx="194" cy="113.1" r="3.8"/>
	<path d="M212.9,115c0,0-2.3,6.8-13.7,5.2C199.2,120.2,208.4,120.1,212.9,115z"/>
	<circle class="st3" cx="193.4" cy="112.3" r="1.6"/>
	<circle class="st4" cx="193.2" cy="111.3" r="0.6"/>
	<path class="st0" d="M164.2,125.8l-12.9,15.4c0,0-26.4-11-3-31.9l15.9,8V125.8z"/>
</g>
<g id="ventral_fins">
	<path class="st0" d="M164,129c0,0,9.7,29.5-25.5,48.8c0,0,11.9-11.1,9.8-19.6c0,0,2.8-1.7,3-10.1c0,0,6.4-11.6,7.9-16.6
		C159.5,130.1,163.7,131,164,129z"/>
</g>
<g id="highlights">
	<path class="st5" d="M138.6,129.6c0,0,1.3,3.2,6.1,8.8c2.4,2.8-7,8.4-11.8,11c0,0,8-10.5,1.4-16c0,0-2,28.3-31.6,35.6
		c0,0-22.5-5.4-37,3.1c0,0,16.2-35.6,8-41L138.6,129.6z"/>
	<path class="st5" d="M63.4,110.7c0,0-12.8-19.5-8-54.8c0,0-10.4,29.5,3.5,59.1c0,0-16-10.3-19.5-44.5c0,0-3.1,37.8,19.1,50.1
		c0,0-24.5-7.4-37.9-27.6c0,0,4.8,23.4,39.6,32.3c0,0-33.3,3.3-39.6-1.9c0,0,6.1,9.6,42.8,6.2c0,0-2.3,6-15.7,10
		c0,0,13.7-1.8,19.7-7.9C67.3,131.8,69.7,120.8,63.4,110.7z"/>
	<path class="st5" d="M143.2,89.5c0,0-9.4-24.1-29-35.3c0,0,20.1,15,19.2,32.1c0,0-13.7-30.8-45.3-38.9c0,0,27.8,15.8,34.6,38.9
		c0,0-11.5-18.6-32.1-17.8c0,0,20.9,8.1,20.1,21.1c0,0-15.9-11.1-31.6-5.8c0,0,36.9,2.4,7.3,14.6C86.4,98.3,107.3,89.4,143.2,89.5z"
		/>
	<path class="st5" d="M173.7,101.2c0,0-34.3-12.9-74.8,6c0,0-28.2,7.9-6-3.4S146.9,86.2,173.7,101.2z"/>
	<path class="st5" d="M164.2,117.8c0,0-6.7,1.5-12.1-3.9c0,0,2.6,6.1,11.4,6c0,0-11.9,3.1-18.5,0c0,0,1.8,3.5,19.2,2.2
		c0,0-5.7,3.2-15.9,3.1c0,0,10.2,0.8,15.9-1c0,0-2.6,2.6-5.7,3.4c0,0,3.4-0.3,5.7-2.4S164.2,117.8,164.2,117.8z"/>
	<path class="st5" d="M164.2,131.2c0,0,0.1,16.2-9.1,26.6c0,0,4.4-8.2,1.9-12.3c0,0,3-4,1.3-6.1c0,0,3.8-4.3,3.8-8.6
		c-0.1-4.3,0,0,0,0L164.2,131.2"/>
</g>
</svg>
