<?xml version="1.0" encoding="utf-8"?>
<!-- Generator: Adobe Illustrator 22.0.1, SVG Export Plug-In . SVG Version: 6.00 Build 0)  -->
<svg version="1.1" xmlns="http://www.w3.org/2000/svg" xmlns:xlink="http://www.w3.org/1999/xlink" x="0px" y="0px"
	 viewBox="0 0 216 216" style="enable-background:new 0 0 216 216;" xml:space="preserve">
<style type="text/css">
	.st0{display:none;}
	.st1{display:inline;fill:#0010A2;}
	.st2{display:inline;fill:#07006F;}
	.st3{display:inline;fill:#FFFFFF;stroke:#000000;stroke-width:0.5;stroke-miterlimit:10;}
	.st4{display:inline;}
	.st5{display:inline;fill:#002597;stroke:#000000;stroke-miterlimit:10;}
	.st6{display:inline;fill:#FFFFFF;}
	.st7{display:inline;fill:#1B31FF;}
	.st8{display:inline;fill:#9F00E7;stroke:#000000;stroke-miterlimit:10;}
	.st9{fill:#0010A2;}
	.st10{fill:#001084;}
	.st11{opacity:0.46;fill:#999FCE;}
	.st12{fill:#6670FF;}
	.st13{display:inline;fill:#9F00E7;}
	.st14{fill:#0010E4;}
</style>
<g id="Layer_1" class="st0">
	<path class="st1" d="M103.5,63.6c0,0-22.3-10.5-50.4-8c0,0,15.3-8,3.8-12.6c0,0,10.1-42.8,50.8-39.1s60.8,34,60.8,52.1
		c0,6.7-43.6,13.4-43.6,13.4c2.3-0.7-1.5,36.5-0.8,81.1c0,0,5,28.6-0.4,43.7c-5.5,15.1-14.3,19.3-14.3,19.3S55.6,149.5,103.5,63.6z"
		/>
	<path class="st1" d="M40.9,118.6c1-1.3,2.3-3.3,2.5-5.9c0.3-3.2-1.3-4.1-3.6-9.8c-3.5-8.8-3.6-15.4-3.5-17.9c0,0,0,0,0,0
		s7.1,1.7,6.7-8.8c0,0,8,7.9,13-10.1c0,0,4.2,11.8,27.3-2.1c0,0,7.1,10.5,10.1,6.3c0,0-4.9,10-0.7,16.8c-1.9,4.6-3.9,9.7-5.4,15.4
		c-4.3,16.2-4.4,30.6-3.4,41.3c-4.9-1.4-10.6-3.4-16.5-6.3C55.4,131.7,46.7,124.4,40.9,118.6z"/>
	<path class="st2" d="M102.6,148.4c0,0,9.4-18,20.7-12.8l0,12l-11.7,17.2l-9.3-16"/>
	<path class="st1" d="M123.4,150.9c8-2,14.9-5,19.2-7.1c7.3-3.6,15.9-7.9,21.4-16.3c3.9-6,5.2-12.3,5.3-12.6
		c0.5-2.4,0.6-4.3,0.6-4.8c-0.3-14-0.5-49.2,5.9-53.9c0,0-25.7,12.3-50.8,13.4L123.4,150.9z"/>
	<path class="st2" d="M125.4,173.5c0,0-4.1-9-11-7.6c-3.2,0.7-6.9,3.6-10.8,10.7C103.7,176.6,114.8,159.7,125.4,173.5z"/>
	<circle class="st3" cx="107.5" cy="194.6" r="3.8"/>
	<path class="st4" d="M109.4,213.5c0,0,6.8-2.3,5.2-13.7C114.6,199.8,114.5,209,109.4,213.5z"/>
	<circle class="st5" cx="106.7" cy="194" r="1.6"/>
	<circle class="st6" cx="105.7" cy="193.8" r="0.6"/>
	<path class="st1" d="M120.2,164.8l15.4-12.9c0,0-11-26.4-31.9-3l8,15.9L120.2,164.8z"/>
	<path class="st1" d="M123.4,164.6c0,0,29.5,9.8,48.8-25.5c0,0-11.1,11.9-19.6,9.8c0,0-1.7,2.8-10.1,3c0,0-11.6,6.4-16.6,7.9
		C124.5,160.1,125.3,164.3,123.4,164.6z"/>
	<path class="st7" d="M124,139.2c0,0,3.2,1.3,8.8,6.1c2.8,2.4,8.4-7,11-11.8c0,0-10.5,8-16,1.4c0,0,28.3-2,35.6-31.6
		c0,0-5.4-22.5,3.1-37c0,0-35.6,16.2-41,8L124,139.2z"/>
	<path class="st7" d="M105.1,64c0,0-19.5-12.8-54.8-8c0,0,29.5-10.4,59.1,3.5c0,0-10.3-16-44.5-19.5c0,0,37.8-3.1,50.1,19.1
		c0,0-7.4-24.5-27.6-37.9c0,0,23.4,4.8,32.3,39.6c0,0,3.3-33.3-1.9-39.6c0,0,9.6,6.1,6.2,42.8c0,0,6-2.3,10-15.7
		c0,0-1.8,13.7-7.9,19.7C126.2,67.9,115.2,70.3,105.1,64z"/>
	<path class="st7" d="M83.9,143.8c0,0-24.1-9.4-35.3-29c0,0,15,20.1,32,19.2c0,0-30.8-13.7-38.9-45.3c0,0,15.8,27.8,38.9,34.6
		c0,0-18.6-11.5-17.8-32.1c0,0,8.1,20.9,21.1,20.1c0,0-11.1-15.9-5.8-31.6c0,0,2.4,36.9,14.6,7.3C92.7,87,83.7,108,83.9,143.8z"/>
	<path class="st7" d="M95.6,174.3c0,0-12.9-34.3,6-74.8c0,0,7.9-28.2-3.4-6S80.6,147.5,95.6,174.3z"/>
	<path class="st7" d="M112.2,164.8c0,0,1.5-6.7-3.9-12.1c0,0,6.1,2.6,6,11.4c0,0,3.1-11.9,0-18.5c0,0,3.5,1.8,2.2,19.2
		c0,0,3.2-5.7,3.1-15.9c0,0,0.8,10.2-1,15.9c0,0,2.6-2.6,3.4-5.7c0,0-0.3,3.4-2.4,5.7C117.6,167,112.2,164.8,112.2,164.8z"/>
	<path class="st7" d="M125.6,164.8c0,0,16.2,0.1,26.6-9.1c0,0-8.2,4.4-12.3,1.9c0,0-4,3-6.1,1.2c0,0-4.3,3.8-8.6,3.7s0,0,0,0
		L125.6,164.8"/>
	<path class="st8" d="M103.5,211.5c0,0-5.2-1-9-19c-5-23.5-7.4-70.6,9-128.9l9-0.1c0,0-1.5,154.6-3,150
		C109.5,213.5,109.5,213.5,103.5,211.5z"/>
</g>
<g id="Layer_2">
	<path class="st9" d="M111.4,57.6c0,0-3.3,0-3.3,0s-3.1,0-3.3,0c0,0-11.3,64.9-14.5,108.3c-1.1,14.5,4.8,29.5,6.6,35.8
		c1.5,5,3.3,7.1,3.3,7.1l15.6-0.1c0,0,1.7-1.7,4.4-9.3c2.1-6.1,6.8-18.5,5.8-32.7C122.8,123.4,111.4,57.6,111.4,57.6z"/>
	<path class="st10" d="M98.8,207.7c0,0,8.8-2.4,18.2,0c0,0,0.7,1.2-1.2,1.5c-1.9,0.4-6-0.6-15.9,0C99.9,209.2,98.1,209.3,98.8,207.7
		z"/>
	<path class="st10" d="M107.7,208.8c-2.3,0-4.9,0.1-7.4,0.5c0,0,2.5,0.6,3.9,1.4c0.8,0.5,2.2,0.6,3.5,0.5c1.3,0.1,2.7,0,3.5-0.5
		c1.4-0.8,3.9-1.4,3.9-1.4C112.6,208.9,110,208.8,107.7,208.8z"/>
	<path d="M107.6,208.5c-2,0-4.2,0.1-6.4,0.3c0,0,2.2,0.4,3.4,1c0.7,0.3,1.9,0.4,3,0.3c1.1,0.1,2.3,0,3-0.3c1.2-0.6,3.4-1,3.4-1
		C111.8,208.6,109.6,208.5,107.6,208.5z"/>
	<path class="st9" d="M104.7,57.6l-5.9-38.3c0,0,4.8-20.6,12.2-12.7s3.3,43.5,0.4,51H104.7z"/>
</g>
<g id="Layer_7">
	<path class="st11" d="M91.7,185c0,0-5.7,7.5,3.2,11.7C94.9,196.7,95.3,191.3,91.7,185z"/>
	<path d="M93.2,190.5"/>
	<path class="st12" d="M92.4,184.4c0,0,4.6,4.5,4.1,11.7c0,0-0.4,1.1-2,0.6c0,0,0.4-5.4-4.2-11.7C90.3,185,91.3,183.9,92.4,184.4z"
		/>
	<path d="M92.9,189.4c0,0-3.2,3.2,1.3,4.1C94.2,193.5,94,192.3,92.9,189.4z"/>
	<path class="st11" d="M124.2,185.3c0,0,5.7,7.5-3.2,11.7C121,197.1,120.6,191.6,124.2,185.3z"/>
	<path class="st12" d="M123.6,184.7c0,0-4.6,4.5-4.1,11.7c0,0,0.4,1.1,2,0.6c0,0-0.4-5.4,4.2-11.7
		C125.7,185.3,124.6,184.2,123.6,184.7z"/>
	<path d="M123.1,189.7c0,0,3.2,3.2-1.3,4.1C121.8,193.8,121.9,192.6,123.1,189.7z"/>
</g>
<g id="Layer_3" class="st0">
	<path class="st13" d="M108,89c0,0-14-30-7-62c0,0,5.4-19.8,9.6-17.7C112,10,102,1.2,111,69L108,89z"/>
</g>
<g id="Layer_5">
</g>
<g id="Layer_6">
	<path class="st14" d="M108.5,175.1c0,0,18.6-47.8,16.3-85c0,0-9.3-4.6-13.9-37.2l-2.3,9.3V175.1z"/>
</g>
<g id="Layer_4">
	<path class="st9" d="M125.9,166.8l11.6-19.8c0,0-1.2-12.8-11.6-13.9l-1,22.1"/>
	<path class="st9" d="M90.1,166.8l-11.6-19.8c0,0,1.2-12.8,11.6-13.9l1,22.1L90.1,166.8z"/>
	<polygon class="st9" points="92.2,155.2 91,155.2 90.1,166.8 90.2,167 92.2,165.7 	"/>
</g>
</svg>
