<?xml version="1.0" encoding="utf-8"?>
<!-- Generator: Adobe Illustrator 22.0.1, SVG Export Plug-In . SVG Version: 6.00 Build 0)  -->
<svg version="1.1" xmlns="http://www.w3.org/2000/svg" xmlns:xlink="http://www.w3.org/1999/xlink" x="0px" y="0px"
	 viewBox="0 0 288 288" style="enable-background:new 0 0 288 288;" xml:space="preserve">
<style type="text/css">
	.st0{fill:#337500;}
	.st1{fill:#318600;}
	.st2{fill:#4B2D00;}
	.st3{fill:#6D6E71;}
	.st4{fill:#58595B;}
</style>
<g id="Layer_1">
	<path class="st0" d="M239.6,268.7c0,0,8.7-142.1-2.3-158.7c0,0,11.9,5.7,4.6,158.7H239.6z"/>
	<path class="st0" d="M186,316.9c-3.4-4.1-28.1-101-33.1-176.4c0,0,26.5,169.5,36.3,177.2L186,316.9z"/>
	<path class="st0" d="M74.2,378.1c0,0,2.5-142.3-9.2-158.4c0,0,12.1,5.1,11.5,158.3L74.2,378.1z"/>
	<path class="st0" d="M42.9,374.7c0,0,2.5-142.3-9.2-158.4c0,0,12.1,5.1,11.5,158.3L42.9,374.7z"/>
	<path class="st0" d="M80.7,394.9c0,0-2.5-142.3,9.2-158.4c0,0-12.1,5.1-11.5,158.3L80.7,394.9z"/>
	<path class="st0" d="M209.8,297.1c0,0-2.5-142.3,9.2-158.4c0,0-12.1,5.1-11.5,158.3L209.8,297.1z"/>
	<path class="st0" d="M173.4,290.1c0,0-20.5-140.9-34.6-154.9c0,0,12.8,3.1,36.9,154.4L173.4,290.1z"/>
	<path class="st0" d="M263.3,287.6c2.3-4.8,3-104.8-10.2-179.2c0,0,15,170.9,7.3,180.8L263.3,287.6z"/>
	<path class="st0" d="M203.2,257c-2.7-4.7-10.3-104.3-2.3-179.5c0,0-3,171.5,5.3,180.8L203.2,257z"/>
	<path class="st0" d="M201.4,233c-2.3-4.8-3-104.8,10.2-179.2c0,0-15,170.9-7.3,180.8L201.4,233z"/>
	<path class="st0" d="M204.6,274.6c-2.3-4.8-3-104.8,10.2-179.2c0,0-15,170.9-7.3,180.8L204.6,274.6z"/>
	<path class="st0" d="M280.6,256.8c2.3-4.8,3-104.8-10.2-179.2c0,0,15,170.9,7.3,180.8L280.6,256.8z"/>
	<path class="st0" d="M276.9,265.4c2.3-4.8,3-104.8-10.2-179.2c0,0,15,170.9,7.3,180.8L276.9,265.4z"/>
	<path class="st0" d="M279.2,212.4c2.3-4.8,3-104.8-10.2-179.2c0,0,15,170.9,7.3,180.8L279.2,212.4z"/>
	<path class="st0" d="M269.1,219.8c2.3-4.8,3-104.8-10.2-179.2c0,0,15,170.9,7.3,180.8L269.1,219.8z"/>
	<path class="st0" d="M255.7,273.5c2.3-4.8,3-104.8-10.2-179.2c0,0,15,170.9,7.3,180.8L255.7,273.5z"/>
	<path class="st0" d="M286.4,247c2.3-4.8,3-104.8-10.2-179.2c0,0,15,170.9,7.3,180.8L286.4,247z"/>
	<g>
		<path class="st1" d="M125.9,305.6c0,0,23.8-83.5-14.1-135.6c0,0,37.6,31,15.8,135.7L125.9,305.6z"/>
		<path class="st2" d="M116.4,177.7c0,0,0.5-1.6,2.3-1.1s11.6,15.3,11.3,27.6c0,0-1,1.7-2.7,1.1
			C127.3,205.4,119.8,190.5,116.4,177.7z"/>
	</g>
	<g>
		<path class="st1" d="M113.3,298.9c0,0,15.7-101.5-27-158.7c0,0,40.4,32.4,28.8,158.6L113.3,298.9z"/>
		<path class="st2" d="M91.5,148.7c0,0,0.3-1.9,2.2-1.5c1.9,0.4,13,16.8,13.9,31.3c0,0-0.8,2.1-2.5,1.6
			C105.1,180.2,96.1,163.5,91.5,148.7z"/>
	</g>
	<g>
		<path class="st1" d="M100.8,321.8c0,0,23.8-83.5-14.1-135.6c0,0,37.6,31,15.8,135.7L100.8,321.8z"/>
		<path class="st2" d="M91.2,193.9c0,0,0.5-1.6,2.3-1.1s11.6,15.3,11.3,27.6c0,0-1,1.7-2.7,1.1C102.2,221.6,94.7,206.8,91.2,193.9z"
			/>
	</g>
	<g>
		<path class="st1" d="M104.5,320.4c0,0,23.8-66.4-14.1-107.8c0,0,37.6,24.6,15.8,107.8L104.5,320.4z"/>
		<path class="st2" d="M94.9,218.8c0,0,0.5-1.3,2.3-0.8c1.8,0.4,11.6,12.2,11.3,21.9c0,0-1,1.4-2.7,0.9
			C105.9,240.8,98.3,229,94.9,218.8z"/>
	</g>
	<g>
		<path class="st1" d="M132.1,321.1c0,0,7.3-92.9-40-141.3c0,0,43,26.2,41.8,141.1L132.1,321.1z"/>
		<path class="st2" d="M98,187.1c0,0,0.2-1.8,2.1-1.5c1.9,0.2,14.4,14.1,16.4,27.2c0,0-0.7,2-2.4,1.7
			C114.2,214.5,103.9,200.1,98,187.1z"/>
	</g>
	<g>
		<path class="st1" d="M170.3,237.4c0,0,41.5-76.4,15.8-135.4c0,0,29.9,38.4-14.1,135.9L170.3,237.4z"/>
		<path class="st2" d="M188.8,110.5c0,0,0.8-1.4,2.5-0.5c1.7,0.9,8,17.5,5,29.4c0,0-1.4,1.5-2.8,0.5
			C193.5,139.9,189.4,123.7,188.8,110.5z"/>
	</g>
	<g>
		<path class="st1" d="M177.8,229.1c0,0-4.4-103.4-57.1-147.5c0,0,45.6,20.5,58.8,146.9L177.8,229.1z"/>
		<path class="st2" d="M127.4,88.5c0,0,0-2,1.9-2.1c1.9-0.1,15.9,12.8,19.6,26.8c0,0-0.4,2.3-2.2,2.3
			C146.8,115.5,134.8,101.7,127.4,88.5z"/>
	</g>
	<g>
		<path class="st1" d="M164.2,266.5c0,0,23.8-83.5-14.1-135.6c0,0,37.6,31,15.8,135.7L164.2,266.5z"/>
		<path class="st2" d="M154.6,138.6c0,0,0.5-1.6,2.3-1.1s11.6,15.3,11.3,27.6c0,0-1,1.7-2.7,1.1
			C165.6,166.3,158.1,151.5,154.6,138.6z"/>
	</g>
	<g>
		<path class="st1" d="M176.5,236.5c0,0,14.7-85.6-28.5-133.3c0,0,40.7,26.8,30.3,133.2L176.5,236.5z"/>
		<path class="st2" d="M153.2,110.3c0,0,0.3-1.6,2.2-1.3c1.9,0.3,13.2,14,14.2,26.2c0,0-0.8,1.8-2.5,1.4
			C167.1,136.7,158,122.7,153.2,110.3z"/>
	</g>
	<g>
		<path class="st1" d="M166.6,252.7c0,0,32.8-80.4,0.9-136.3c0,0,34,34.9,0.9,136.6L166.6,252.7z"/>
		<path class="st2" d="M171.1,124.5c0,0,0.7-1.5,2.4-0.8s9.9,16.5,8.2,28.7c0,0-1.2,1.6-2.8,0.8
			C178.9,153.2,173.1,137.7,171.1,124.5z"/>
	</g>
	<g>
		<path class="st1" d="M180.6,223.1c0,0,23.8-83.5-14.1-135.6c0,0,37.6,31,15.8,135.7L180.6,223.1z"/>
		<path class="st2" d="M171.1,95.2c0,0,0.5-1.6,2.3-1.1s11.6,15.3,11.3,27.6c0,0-1,1.7-2.7,1.1C182,122.9,174.5,108,171.1,95.2z"/>
	</g>
	<path class="st3" d="M288,157c0,0-42.8-15-70,10.9c0,0-12.3,3.6,6.8,12.3c0,0-13.6,0.5-7.3,2.3c6.4,1.8-17.7,5.9-17.7,5.9
		s-18.2,8.6,11.8,14.1c0,0-55,1.8-65,17.3c-10,15.5,4.5,18.2,0,29.1c-4.5,10.9-25,22.8-12.7,39.1H288V157z"/>
	<path class="st0" d="M79.9,382.5c-2.7-4.7-10.3-104.3-2.3-179.5c0,0-3,171.5,5.3,180.8L79.9,382.5z"/>
	<path class="st0" d="M52.8,382.5c-2.7-4.7-10.3-104.3-2.3-179.5c0,0-3,171.5,5.3,180.8L52.8,382.5z"/>
	<path class="st0" d="M72.2,397.4c-2.7-4.7-10.3-104.3-2.3-179.5c0,0-3,171.5,5.3,180.8L72.2,397.4z"/>
	<path class="st0" d="M63.3,349.5C60.6,344.9,53,245.2,61,170c0,0-3,171.5,5.3,180.8L63.3,349.5z"/>
	<path class="st0" d="M56.1,388c-2.2-4.7-8.4-104.3-1.9-179.5c0,0-2.4,171.5,4.3,180.8L56.1,388z"/>
	<path class="st0" d="M46,408.6c-2.2-4.7-8.4-104.3-1.9-179.5c0,0-2.4,171.5,4.3,180.8L46,408.6z"/>
	<path class="st4" d="M177.9,207.3l-8.7,3.2c0,0,21.4,2.5,37,0c0,0,12.1,3.4,21.5,3.4c9.3,0.1,15.3-4.4,15.3-4.4s-10.5,5.8-21.3,2.2
		c-10.8-3.7-19.9-4.4-19.9-4.4H177.9z"/>
	<polygon class="st4" points="283.3,216.3 276.2,221.7 282,229.1 274.8,236.5 283.3,233 283.3,223.2 286.8,216.3 	"/>
	<path class="st4" d="M320,210.6"/>
	<polygon class="st4" points="209.3,238.3 204.6,242.9 218.7,242 227,247 233.3,242.7 226,242.9 216.2,237.9 	"/>
</g>
<g id="Layer_2">
	<path class="st4" d="M224.8,180.2c0,0,26.5,8.5,58.5,4.5c0,0-69.1-4.5-65.4-16.7C218,168,206.2,172.1,224.8,180.2z"/>
	<path class="st4" d="M196,192.8c0,0,0.3,8.5,93.3,12.7c0,0-71.5,0.9-77.7-3C211.6,202.5,187.2,198.1,196,192.8z"/>
	<path class="st4" d="M144.7,236.5c0,0,12.5,0,14.5-8.7c0,0,9.3,25.8,11,26.3c14.4,4.2,39.3-5.5,63.4-3.7c0,0,21.8-11.1,25.3-8.1
		s7.8,2.4,7.8,2.4s-6.9,0.4-11.8,0c-2.1-0.2-1.8,0-1.8,0L236,258.4c0,0-88.5,10.1-91.3-4.3C144.7,254.1,149.5,245.2,144.7,236.5z"/>
</g>
</svg>
